<?xml version="1.0" encoding="UTF-8" standalone="no"?>
<!-- Created with Inkscape (http://www.inkscape.org/) -->

<svg
   xmlns:dc="http://purl.org/dc/elements/1.1/"
   xmlns:cc="http://creativecommons.org/ns#"
   xmlns:rdf="http://www.w3.org/1999/02/22-rdf-syntax-ns#"
   xmlns:svg="http://www.w3.org/2000/svg"
   xmlns="http://www.w3.org/2000/svg"
   xmlns:sodipodi="http://sodipodi.sourceforge.net/DTD/sodipodi-0.dtd"
   xmlns:inkscape="http://www.inkscape.org/namespaces/inkscape"
   width="210mm"
   height="297mm"
   viewBox="0 0 210 297"
   version="1.1"
   id="svg3773"
   sodipodi:docname="trait3.svg"
   inkscape:version="0.92.4 (5da689c313, 2019-01-14)">
  <defs
     id="defs3767" />
  <sodipodi:namedview
     id="base"
     pagecolor="#ffffff"
     bordercolor="#666666"
     borderopacity="1.0"
     inkscape:pageopacity="0.0"
     inkscape:pageshadow="2"
     inkscape:zoom="0.35"
     inkscape:cx="400"
     inkscape:cy="560"
     inkscape:document-units="mm"
     inkscape:current-layer="layer1"
     showgrid="false"
     inkscape:window-width="1920"
     inkscape:window-height="1001"
     inkscape:window-x="-9"
     inkscape:window-y="-9"
     inkscape:window-maximized="1" />
  <metadata
     id="metadata3770">
    <rdf:RDF>
      <cc:Work
         rdf:about="">
        <dc:format>image/svg+xml</dc:format>
        <dc:type
           rdf:resource="http://purl.org/dc/dcmitype/StillImage" />
        <dc:title></dc:title>
      </cc:Work>
    </rdf:RDF>
  </metadata>
  <g
     inkscape:label="Calque 1"
     inkscape:groupmode="layer"
     id="layer1">
    <path
       style="fill:#241c1c;stroke-width:0.26458332"
       id="path3789"
       d="m 8.3800848,131.92591 c 2.5909662,0.0369 5.1823382,0.0175 7.7734912,0.0193 2.091786,-0.003 4.183556,-0.0122 6.275337,-0.0174 1.943413,0.006 3.886836,0.003 5.830248,0.007 2.270882,0.005 4.541782,0.007 6.812669,0.004 2.06366,0.004 4.127312,-0.005 6.190964,-0.01 1.69214,-0.007 3.384272,2.6e-4 5.076415,9e-5 2.286519,0.01 4.573011,0.0168 6.859548,0.0118 2.102932,0.004 4.20584,-0.0116 6.308767,-0.008 2.003015,0.01 4.006038,-0.004 6.009058,6e-5 1.78018,1.1e-4 3.560358,-0.004 5.340535,-0.006 1.718522,-5.3e-4 3.437057,5.3e-4 5.15557,0.006 2.123565,0.004 4.247132,0.004 6.370696,0.007 1.971797,7.9e-4 3.943575,-0.0121 5.915366,-0.008 1.997207,0.002 3.994415,0.004 5.991625,0.004 1.844153,-0.006 3.688294,-0.005 5.532448,-0.004 1.876818,0.003 3.753628,0.002 5.630448,-0.002 1.84456,-0.0778 3.66854,-0.43185 5.5143,-0.5862 2.26507,-0.16325 4.53849,-0.14357 6.80803,-0.15672 2.3211,0.12767 4.60861,-0.26727 6.90778,-0.51381 1.84193,-0.50071 3.72882,-0.75122 5.62696,-0.90697 1.80375,-0.11115 3.61266,-0.10868 5.41924,-0.11417 1.78493,-0.0463 3.54281,-0.44081 5.32914,-0.58146 1.99859,-0.15243 4.00334,-0.15284 6.00631,-0.15556 2.42287,0.006 4.84573,5.3e-4 7.26859,-0.006 1.89316,0.003 3.78632,-0.002 5.67948,-0.005 1.6686,-0.005 3.33718,0.002 5.00577,0.002 1.78995,-0.002 3.57987,0.002 5.36982,2.7e-4 1.62004,-0.002 3.24009,-0.004 4.86013,-0.005 1.51548,-5.3e-4 3.03097,-5.3e-4 4.54645,-5.3e-4 1.51044,1e-5 3.02088,3e-5 4.53133,4e-5 1.51175,10e-6 3.02351,10e-6 4.53526,10e-6 1.51192,0 3.02384,0 4.53576,0 1.51191,0 3.02382,0 4.53572,0 1.51191,0 3.02381,0 4.53572,0 1.5119,0 3.02381,0 4.53571,0 1.51191,0 3.02381,0 4.53572,0 1.00793,0 2.01587,0 3.02381,0 0,0 -9.09122,6.60515 -9.09122,6.60515 v 0 c -1.00794,0 -2.01587,0 -3.02381,0 -1.5119,0 -3.02381,0 -4.53571,0 -1.51191,0 -3.02381,0 -4.53572,0 -1.5119,0 -3.02381,0 -4.53571,0 -1.51191,0 -3.02382,0 -4.53572,0 -1.51192,0 -3.02384,0 -4.53576,0 -1.51177,1e-5 -3.02354,1e-5 -4.5353,2e-5 -1.51048,1e-5 -3.02095,3e-5 -4.53142,3e-5 -1.51492,-1e-5 -3.02984,-1e-5 -4.54475,-5.3e-4 -1.61564,-7.9e-4 -3.23127,-0.002 -4.8469,-0.005 -1.79022,-0.002 -3.58042,0.002 -5.37064,2.7e-4 -1.67021,-1.1e-4 -3.34041,0.007 -5.01062,0.001 -1.88634,-0.004 -3.77267,-0.0107 -5.65901,-0.0108 -2.41641,-0.0105 -4.83293,-0.0236 -7.24929,0.003 -1.99169,0.0266 -3.98625,0.0584 -5.97017,0.25263 -1.79645,0.20622 -3.58399,0.56466 -5.39995,0.50533 -1.78597,0.01 -3.57515,0.0199 -5.35437,0.19379 -1.88583,0.20796 -3.73314,0.60094 -5.60333,0.90619 -2.31183,0.252 -4.61997,0.50877 -6.95135,0.40593 -2.26152,0.0181 -4.52666,0.0417 -6.77985,0.25683 -1.86,0.19522 -3.710514,0.56386 -5.587756,0.50945 -1.875261,-0.003 -3.750517,-0.005 -5.625777,-0.002 -1.840566,8e-4 -3.681122,0.002 -5.521688,-0.004 -2.000586,-8e-4 -4.001167,0.002 -6.00175,0.004 -1.964518,0.004 -3.92902,-0.009 -5.893543,-0.008 -2.129833,0.003 -4.259668,0.003 -6.389497,0.007 -1.723866,0.005 -3.447754,0.006 -5.171625,0.006 -1.774428,-0.002 -3.548857,-0.006 -5.323287,-0.006 -2.003079,0.004 -4.00616,-0.01 -6.009235,7e-5 -2.095191,0.003 -4.19036,-0.0123 -6.285556,-0.008 -2.297321,-0.005 -4.594595,0.002 -6.891898,0.0117 -1.692227,-2.6e-4 -3.384444,0.007 -5.076672,9e-5 -2.054497,-0.005 -4.108997,-0.0135 -6.163504,-0.01 -2.27473,-0.003 -4.549474,-7.9e-4 -6.824198,0.004 -1.949405,0.004 -3.898819,5.3e-4 -5.848223,0.007 -2.075866,-0.005 -4.1517201,-0.0145 -6.2275917,-0.0173 -2.6088967,0.002 -5.2179996,-0.0173 -7.82671648,0.0193 0,0 9.08490198,-6.60057 9.08490198,-6.60057 z"
       inkscape:connector-curvature="0" />
  </g>
</svg>
