<?xml version="1.0" encoding="UTF-8" standalone="no"?>
<!-- Created with Inkscape (http://www.inkscape.org/) -->

<svg
   xmlns:dc="http://purl.org/dc/elements/1.1/"
   xmlns:cc="http://creativecommons.org/ns#"
   xmlns:rdf="http://www.w3.org/1999/02/22-rdf-syntax-ns#"
   xmlns:svg="http://www.w3.org/2000/svg"
   xmlns="http://www.w3.org/2000/svg"
   xmlns:sodipodi="http://sodipodi.sourceforge.net/DTD/sodipodi-0.dtd"
   xmlns:inkscape="http://www.inkscape.org/namespaces/inkscape"
   width="210mm"
   height="297mm"
   viewBox="0 0 210 297"
   version="1.1"
   id="svg3773"
   inkscape:version="0.92.4 (5da689c313, 2019-01-14)"
   sodipodi:docname="trait2.svg">
  <defs
     id="defs3767" />
  <sodipodi:namedview
     id="base"
     pagecolor="#ffffff"
     bordercolor="#666666"
     borderopacity="1.0"
     inkscape:pageopacity="0.0"
     inkscape:pageshadow="2"
     inkscape:zoom="0.35"
     inkscape:cx="400"
     inkscape:cy="560"
     inkscape:document-units="mm"
     inkscape:current-layer="layer1"
     showgrid="false"
     inkscape:window-width="1920"
     inkscape:window-height="1001"
     inkscape:window-x="-9"
     inkscape:window-y="-9"
     inkscape:window-maximized="1" />
  <metadata
     id="metadata3770">
    <rdf:RDF>
      <cc:Work
         rdf:about="">
        <dc:format>image/svg+xml</dc:format>
        <dc:type
           rdf:resource="http://purl.org/dc/dcmitype/StillImage" />
        <dc:title></dc:title>
      </cc:Work>
    </rdf:RDF>
  </metadata>
  <g
     inkscape:label="Calque 1"
     inkscape:groupmode="layer"
     id="layer1">
    <path
       style="fill:#241c1c;stroke-width:0.26458332"
       id="path3785"
       d="m 9.2215302,114.54258 c 2.8969378,0.0373 5.7943338,0.0224 8.6914708,0.0229 2.78039,0.004 5.560766,-0.007 8.341151,-0.008 3.017784,-0.002 6.035518,0.0142 9.0533,0.0215 4.444304,0.0157 8.888669,0.0243 13.333002,0.0207 4.370777,-0.004 8.741561,-0.004 13.112335,-0.011 3.74169,-0.004 7.483387,-0.0112 11.225077,-0.0116 3.346818,-0.002 6.693636,-0.007 10.040448,-0.005 2.635012,-0.004 5.270008,-0.0193 7.905025,-0.0204 2.35377,-0.002 4.707543,0.002 7.061319,0.004 2.503652,-0.002 5.007312,5.2e-4 7.510972,0.001 2.05046,-0.003 4.10091,-0.012 6.15137,-0.0168 1.58303,-0.002 3.16607,-0.007 4.74909,-2.6e-4 2.11517,0.007 4.23036,0.009 6.34554,0.0149 2.46415,0.009 4.92831,-0.003 7.39246,-0.003 2.47568,0.01 4.95136,0.002 7.42705,0.002 2.16311,0.002 4.32623,-0.009 6.48934,-0.007 1.98788,-2.6e-4 3.97578,-0.004 5.96366,4e-5 2.39671,0.0139 4.79344,0.006 7.19016,0.007 2.06794,-0.007 4.13588,-0.006 6.20382,-0.009 1.88285,0.005 3.76571,-0.001 5.64856,-0.005 1.56547,-0.003 3.13094,-0.003 4.69641,-0.004 1.5095,-2.4e-4 3.01899,-1.8e-4 4.52849,-1.5e-4 1.51092,2e-5 3.02183,4e-5 4.53275,4e-5 1.66161,2.7e-4 3.3232,0.006 4.98482,0.005 1.61056,-0.002 3.22112,-0.003 4.83168,-0.004 1.23926,-0.10484 2.67302,-0.25356 3.81633,-0.78426 1.20542,-0.51923 2.52169,-0.60816 3.81511,-0.6836 1.22688,-0.46147 2.51864,-0.62256 3.81622,-0.72209 1.39625,0.0941 2.68227,-0.24582 4.02811,-0.52359 1.38715,-0.2441 2.79878,-0.27535 4.20332,-0.30338 0.24844,-0.003 0.49688,-0.006 0.74532,-0.008 0,0 -9.08007,6.62369 -9.08007,6.62369 v 0 c -0.24605,0.007 -0.49209,0.0134 -0.73814,0.0201 -1.37477,0.0592 -2.75225,0.15216 -4.0962,0.46853 -1.35354,0.28654 -2.71486,0.31885 -4.09106,0.42875 -1.29101,0.17457 -2.53708,0.54216 -3.82722,0.70498 -1.26421,0.14815 -2.48484,0.42996 -3.6745,0.89092 -1.32506,0.25896 -2.64397,0.58892 -4.0068,0.49223 -1.60699,-7.9e-4 -3.21399,-0.002 -4.82098,-0.004 -1.66574,-0.001 -3.33144,0.004 -4.99717,0.005 -1.51096,0 -3.02192,2e-5 -4.53288,4e-5 -1.50935,3e-5 -3.0187,9e-5 -4.52805,-1.5e-4 -1.56218,-2.7e-4 -3.12435,-0.001 -4.68652,-0.004 -1.87871,-0.003 -3.75743,-0.009 -5.63614,-0.005 -2.05971,-0.003 -4.11942,-0.002 -6.17913,-0.009 -2.40296,2.7e-4 -4.80591,-0.007 -7.20885,0.007 -1.98792,0.004 -3.97584,2.7e-4 -5.96376,4e-5 -2.15666,0.002 -4.31333,-0.009 -6.47,-0.007 -2.47735,-2.2e-4 -4.95469,-0.008 -7.43204,0.002 -2.46157,1e-4 -4.92315,-0.012 -7.38472,-0.003 -2.12883,0.006 -4.25766,0.008 -6.38648,0.0149 -1.58268,0.006 -3.16537,0.002 -4.74805,-2.7e-4 -2.0351,-0.005 -4.070181,-0.0134 -6.10528,-0.0167 -2.504876,7.9e-4 -5.009753,0.003 -7.514629,10e-4 -2.357702,0.002 -4.715404,0.006 -7.073106,0.004 -2.61633,-0.001 -5.232644,-0.0164 -7.848973,-0.0204 -3.342561,0.003 -6.685129,-0.003 -10.027695,-0.005 -3.731072,-2.6e-4 -7.46215,-0.008 -11.193224,-0.0116 -4.360728,-0.006 -8.721463,-0.007 -13.082196,-0.0109 -4.463307,-0.004 -8.926648,0.005 -13.389925,0.0207 -3.03746,0.007 -6.074874,0.0235 -9.112337,0.0215 -2.772755,-0.002 -5.5455,-0.0126 -8.3182611,-0.008 -2.9181028,5.2e-4 -5.8364506,-0.0141 -8.75436198,0.0228 0,0 9.07503828,-6.5934 9.07503828,-6.5934 z"
       inkscape:connector-curvature="0" />
  </g>
</svg>
