<?xml version="1.0" encoding="UTF-8" standalone="no"?>
<!-- Created with Inkscape (http://www.inkscape.org/) -->

<svg
   xmlns:dc="http://purl.org/dc/elements/1.1/"
   xmlns:cc="http://creativecommons.org/ns#"
   xmlns:rdf="http://www.w3.org/1999/02/22-rdf-syntax-ns#"
   xmlns:svg="http://www.w3.org/2000/svg"
   xmlns="http://www.w3.org/2000/svg"
   xmlns:sodipodi="http://sodipodi.sourceforge.net/DTD/sodipodi-0.dtd"
   xmlns:inkscape="http://www.inkscape.org/namespaces/inkscape"
   width="220.4986mm"
   height="9.5091467mm"
   viewBox="0 0 220.4986 9.5091467"
   version="1.1"
   id="svg3773"
   sodipodi:docname="trait4.svg"
   inkscape:version="0.92.4 (5da689c313, 2019-01-14)">
  <defs
     id="defs3767" />
  <sodipodi:namedview
     id="base"
     pagecolor="#ffffff"
     bordercolor="#666666"
     borderopacity="1.0"
     inkscape:pageopacity="0.0"
     inkscape:pageshadow="2"
     inkscape:zoom="0.35"
     inkscape:cx="405.28301"
     inkscape:cy="-76.006553"
     inkscape:document-units="mm"
     inkscape:current-layer="layer1"
     showgrid="false"
     inkscape:window-width="1920"
     inkscape:window-height="1001"
     inkscape:window-x="-9"
     inkscape:window-y="-9"
     inkscape:window-maximized="1" />
  <metadata
     id="metadata3770">
    <rdf:RDF>
      <cc:Work
         rdf:about="">
        <dc:format>image/svg+xml</dc:format>
        <dc:type
           rdf:resource="http://purl.org/dc/dcmitype/StillImage" />
        <dc:title></dc:title>
      </cc:Work>
    </rdf:RDF>
  </metadata>
  <g
     inkscape:label="Calque 1"
     inkscape:groupmode="layer"
     id="layer1"
     transform="translate(1.3977969,-119.21412)">
    <path
       style="fill:#241c1c;stroke-width:0.26458332"
       id="path3795"
       d="m 7.7420096,119.21429 c 3.4464104,0.41172 6.9224194,0.39805 10.3762484,0.69753 3.081937,0.32637 6.173027,0.53169 9.269892,0.63514 2.628765,0.0701 5.258745,0.0683 7.888214,0.0603 2.463601,0.005 4.927197,-0.003 7.390802,-0.002 2.754592,-0.003 5.50918,0.006 8.263776,0.009 2.851679,0.005 5.703339,-0.007 8.555011,-0.009 2.668936,-2.6e-4 5.337849,0.003 8.006786,0.003 2.5458,-0.004 5.091612,-0.006 7.637415,-0.003 2.612281,0.007 5.22456,-0.001 7.836842,-0.002 2.458373,0.002 4.916736,-0.004 7.375106,-1.3e-4 2.691935,0.001 5.383874,0.008 8.075806,0.006 2.668162,0.004 5.336312,-0.006 8.004462,-0.006 2.2744,7.9e-4 4.54879,-0.005 6.82318,-0.008 1.97058,0.001 3.94117,-0.006 5.91175,-0.002 1.96797,0.001 3.93595,-0.002 5.90392,0.002 2.24874,0.0141 4.49748,7.9e-4 6.74622,0.002 2.03614,-0.001 4.0723,-0.006 6.10844,-0.002 2.24556,-0.11441 4.4591,0.28673 6.68575,0.5051 2.07974,0.12669 4.13828,0.21815 6.20001,0.51804 2.22854,0.30191 4.47723,0.40034 6.72313,0.46087 2.21232,0.0378 4.42511,0.0389 6.6377,0.0436 2.7362,0.006 5.47241,0.003 8.20861,-0.005 2.4961,-2.6e-4 4.99222,-0.003 7.48834,-0.004 2.10538,-0.006 4.21076,-0.0102 6.31615,-0.006 2.02082,-0.001 4.04163,-2.6e-4 6.06245,-0.004 1.64691,-0.004 3.29383,-0.006 4.94075,-0.007 1.51358,-8e-4 3.02715,-8e-4 4.54073,-8e-4 1.49232,0.16286 2.89152,-0.17815 4.34633,-0.41743 1.54997,-0.23804 3.11857,-0.29274 4.68371,-0.3271 1.52366,-0.023 3.04756,-0.0178 4.57133,-0.0159 1.25998,0.002 2.51995,0.003 3.77993,0.004 0,0 -9.09171,6.60451 -9.09171,6.60451 v 0 c -1.25992,-10e-4 -2.51984,-0.003 -3.77976,-0.004 -1.51639,-3e-5 -3.03318,-0.003 -4.54902,0.0438 -1.53842,0.0623 -3.07689,0.16793 -4.59317,0.45019 -1.48149,0.25619 -2.95418,0.33227 -4.45907,0.26723 -1.51296,0 -3.02592,5e-5 -4.53888,-7.9e-4 -1.64067,-10e-4 -3.28133,-0.003 -4.922,-0.007 -2.01679,-0.004 -4.03358,-0.003 -6.05038,-0.004 -2.09975,0.004 -4.19948,5e-5 -6.29923,-0.006 -2.4933,-2.6e-4 -4.9866,-0.003 -7.47989,-0.002 -2.73657,-0.006 -5.47314,-0.004 -8.2097,0.005 -2.22706,0.005 -4.45485,0.0195 -6.681,-0.0576 -2.27088,-0.0878 -4.54035,-0.24593 -6.79345,-0.55092 -2.05129,-0.25777 -4.11729,-0.26869 -6.17242,-0.4936 -2.2038,-0.23803 -4.40354,-0.52671 -6.62714,-0.4056 -2.03424,0.003 -4.06848,-8e-4 -6.10272,-0.002 -2.25089,0.002 -4.50178,-0.0118 -6.75266,0.002 -1.96945,0.004 -3.93892,5.3e-4 -5.90838,0.002 -1.96837,0.004 -3.93677,-0.004 -5.90514,-0.002 -2.26684,-0.003 -4.533677,-0.009 -6.800518,-0.008 -2.662478,-5.3e-4 -5.324949,-0.01 -7.98743,-0.006 -2.697699,-0.002 -5.395407,0.005 -8.093112,0.006 -2.458256,0.003 -4.916505,-0.002 -7.374762,-1.2e-4 -2.610903,-2.4e-4 -5.221804,-0.009 -7.832707,-0.002 -2.543138,0.003 -5.086284,0.001 -7.629419,-0.003 -2.671416,-2.6e-4 -5.342808,0.003 -8.014218,0.003 -2.843335,-0.002 -5.686661,-0.0145 -8.530003,-0.009 -2.763848,0.003 -5.52768,0.0121 -8.291525,0.0121 -2.467798,0.005 -4.935601,0.003 -7.403397,0.008 -2.629218,-0.0135 -5.259036,-0.0221 -7.886994,-0.1131 -3.088759,-0.13583 -6.167717,-0.40044 -9.2441071,-0.70595 -3.4967936,-0.2353 -7.0025705,-0.33104 -10.4946848,-0.64427 0,0 9.1398065,-6.50227 9.1398065,-6.50227 z"
       inkscape:connector-curvature="0" />
  </g>
</svg>
