<?xml version="1.0" encoding="UTF-8" standalone="no"?>
<!-- Created with Inkscape (http://www.inkscape.org/) -->

<svg
   xmlns:dc="http://purl.org/dc/elements/1.1/"
   xmlns:cc="http://creativecommons.org/ns#"
   xmlns:rdf="http://www.w3.org/1999/02/22-rdf-syntax-ns#"
   xmlns:svg="http://www.w3.org/2000/svg"
   xmlns="http://www.w3.org/2000/svg"
   xmlns:sodipodi="http://sodipodi.sourceforge.net/DTD/sodipodi-0.dtd"
   xmlns:inkscape="http://www.inkscape.org/namespaces/inkscape"
   width="210mm"
   height="297mm"
   viewBox="0 0 210 297"
   version="1.1"
   id="svg3763"
   inkscape:version="0.92.4 (5da689c313, 2019-01-14)"
   sodipodi:docname="trait1.svg">
  <defs
     id="defs3757" />
  <sodipodi:namedview
     id="base"
     pagecolor="#ffffff"
     bordercolor="#666666"
     borderopacity="1.0"
     inkscape:pageopacity="0.0"
     inkscape:pageshadow="2"
     inkscape:zoom="0.35"
     inkscape:cx="400"
     inkscape:cy="560"
     inkscape:document-units="mm"
     inkscape:current-layer="layer1"
     showgrid="false"
     inkscape:window-width="1920"
     inkscape:window-height="1001"
     inkscape:window-x="-9"
     inkscape:window-y="-9"
     inkscape:window-maximized="1" />
  <metadata
     id="metadata3760">
    <rdf:RDF>
      <cc:Work
         rdf:about="">
        <dc:format>image/svg+xml</dc:format>
        <dc:type
           rdf:resource="http://purl.org/dc/dcmitype/StillImage" />
        <dc:title></dc:title>
      </cc:Work>
    </rdf:RDF>
  </metadata>
  <g
     inkscape:label="Calque 1"
     inkscape:groupmode="layer"
     id="layer1">
    <path
       style="fill:#241c1c;stroke-width:0.26458332"
       id="path3765"
       d="m 25.766989,79.765191 c 3.890146,0.06544 7.781032,0.05526 11.671573,0.05576 4.11007,0.06746 8.227851,-0.14409 12.332703,0.09714 3.162567,0.253421 6.327688,0.456536 9.498719,0.559996 2.743062,0.06396 5.487199,0.0711 8.230899,0.07121 2.51134,0.22093 5.018135,0.482912 7.535177,0.632058 1.691955,0.09235 3.386733,0.09333 5.080593,0.102949 1.919316,0.0011 3.838633,0.0051 5.757949,0.0038 2.163413,0.0011 4.326835,-0.0016 6.490251,5.29e-4 1.995738,-0.0037 3.99143,-0.0092 5.987163,-0.0024 2.198834,0.0021 4.397654,0.0053 6.596484,7.94e-4 2.14555,0.0067 4.29109,0.0013 6.43664,-0.0043 1.81777,-0.03944 3.61234,-0.42168 5.42417,-0.599853 1.5873,-0.139772 3.1815,-0.156565 4.77379,-0.167484 1.8676,0.0041 3.73518,0.009 5.60278,0.0081 1.6573,-0.0016 3.3146,-0.003 4.97189,-0.0039 1.69755,0.004 3.3951,0.0046 5.09265,0.003 1.58039,-0.0019 3.16077,-0.0028 4.74115,-0.0033 1.76379,0.0019 3.52758,0.0072 5.29138,0.0083 1.77542,1.9e-4 3.55084,-0.0087 5.32627,-0.0032 1.72642,0.0019 3.45285,-0.0016 5.17928,-0.0033 2.19002,-0.0027 4.37998,0.01844 6.56997,0.02915 3.62902,0.01497 7.25805,0.01135 10.88708,0.01368 3.75648,0.0033 7.51295,-0.0039 11.26943,-8.5e-5 3.62835,-0.123269 7.24022,0.261517 10.85716,0.48087 3.59358,0.199025 7.19324,0.243938 10.79152,0.262006 4.83604,0.13806 9.66705,0.455851 14.50508,0.609947 4.19465,0.124195 8.39109,0.154725 12.58732,0.151137 3.01598,0.0047 6.03195,-0.0037 9.04792,-0.008 2.71401,-0.0033 5.42804,-0.0024 8.14204,-0.0079 2.31605,-0.0013 4.63208,-0.0092 6.94813,-0.0067 1.89226,-7.94e-4 3.7845,0.0038 5.67675,-1.51e-4 0,0 -9.0526,6.5771 -9.0526,6.5771 v 0 c -1.8921,-0.004 -3.78416,7.94e-4 -5.67626,-2.06e-4 -2.31001,0.0024 -4.61999,-0.0055 -6.92999,-0.0062 -2.70909,-0.0049 -5.41819,-0.0024 -8.12728,-0.0021 -3.00854,-5.29e-4 -6.01708,-0.0011 -9.02559,-0.01611 -4.16719,-0.04624 -8.33497,-0.09709 -12.49973,-0.255125 -4.86212,-0.184306 -9.72293,-0.474088 -14.58869,-0.513874 -3.60575,-0.04503 -7.21312,-0.09365 -10.81316,-0.319137 -3.60061,-0.227896 -7.1983,-0.53965 -10.8106,-0.429837 -3.7564,0.0039 -7.51279,-0.0033 -11.26919,-8.7e-5 -3.64158,0.0024 -7.28315,-0.0013 -10.92471,0.01368 -2.21674,0.01069 -4.43344,0.03174 -6.65021,0.02915 -1.72338,-0.0019 -3.44677,-0.0052 -5.17016,-0.0033 -1.77246,0.0054 -3.54492,-0.0034 -5.31739,-0.0032 -1.77137,0.0011 -3.54272,0.0064 -5.31408,0.0083 -1.57738,-5.3e-4 -3.15476,-0.0013 -4.73214,-0.0032 -1.70021,-0.0016 -3.40042,-7.94e-4 -5.10062,0.0024 -1.65151,-0.0016 -3.30301,-0.0047 -4.9545,-0.0098 -1.8713,-0.0045 -3.74273,-0.0089 -5.61391,0.01712 -1.5686,0.025 -3.1388,0.06859 -4.69896,0.246076 -1.8233,0.213598 -3.64251,0.559665 -5.4857,0.495789 -2.14155,-0.0057 -4.283107,-0.01101 -6.424671,-0.0043 -2.199455,-0.0046 -4.398904,-0.0016 -6.598362,5.29e-4 -1.993569,0.0067 -3.987099,0.0013 -5.980673,-0.0021 -2.165533,0.0026 -4.331065,5.29e-4 -6.496595,0.005 -1.927384,0.0016 -3.854765,0.01333 -5.782149,0.0055 -1.702496,-0.0079 -3.405536,-0.04462 -5.103754,-0.174109 -2.484554,-0.194902 -4.960654,-0.506042 -7.452143,-0.599096 -2.748047,-0.0074 -5.496663,-0.0074 -8.243329,-0.108934 -3.161549,-0.120129 -6.312188,-0.394198 -9.468715,-0.600959 -4.083203,-0.163235 -8.17232,-0.04267 -12.257889,-0.08371 -3.94171,5.29e-4 -7.883733,-0.0088 -11.825063,0.05576 0,0 9.084902,-6.600568 9.084902,-6.600568 z"
       inkscape:connector-curvature="0" />
  </g>
</svg>
